<svg width="12" height="12" viewBox="0 0 12 12" fill="none" xmlns="http://www.w3.org/2000/svg">
<path d="M6.91617 6.01065L10.81 2.11673C11.0634 1.86345 11.0634 1.45393 10.81 1.20064C10.5567 0.94736 10.1472 0.94736 9.89388 1.20064L5.99996 5.09456L2.10614 1.20064C1.85274 0.94736 1.44334 0.94736 1.19005 1.20064C0.936649 1.45393 0.936649 1.86345 1.19005 2.11673L5.08386 6.01065L1.19005 9.90458C0.936649 10.1579 0.936649 10.5674 1.19005 10.8207C1.31628 10.947 1.48225 11.0105 1.6481 11.0105C1.81395 11.0105 1.9798 10.947 2.10614 10.8207L5.99996 6.92675L9.89388 10.8207C10.0202 10.947 10.1861 11.0105 10.3519 11.0105C10.5178 11.0105 10.6836 10.947 10.81 10.8207C11.0634 10.5674 11.0634 10.1579 10.81 9.90458L6.91617 6.01065Z" fill="white" stroke="white" stroke-width="0.5"/>
</svg>
