<svg width="39" height="51" viewBox="0 0 39 51" fill="none" xmlns="http://www.w3.org/2000/svg">
<path d="M23.8059 10.3108V0.100586H2.11203C0.945616 0.100586 0 1.0462 0 2.21261V48.888C0 50.0544 0.945616 51 2.11203 51H35.9042C37.0706 51 38.0162 50.0544 38.0162 48.888V14.2581H27.7532C25.5767 14.2581 23.8059 12.4873 23.8059 10.3108V10.3108ZM15.277 40.019L10.7837 44.5123C10.4925 44.8035 10.1109 44.9491 9.72934 44.9491C9.34779 44.9491 8.96605 44.8036 8.67497 44.5124L6.80958 42.6471C6.22722 42.0647 6.22722 41.1206 6.80958 40.5383C7.39184 39.9559 8.33607 39.9559 8.91843 40.5383L9.72934 41.3492L13.1682 37.9103C13.7505 37.3279 14.6947 37.3279 15.2771 37.9103C15.8594 38.4925 15.8594 39.4367 15.277 40.019ZM15.277 30.0777L10.7837 34.571C10.4925 34.8622 10.1109 35.0078 9.72934 35.0078C9.34779 35.0078 8.96605 34.8623 8.67497 34.5711L6.80958 32.7058C6.22722 32.1235 6.22722 31.1793 6.80958 30.597C7.39184 30.0146 8.33607 30.0146 8.91843 30.597L9.72934 31.4079L13.1682 27.969C13.7505 27.3866 14.6947 27.3866 15.2771 27.969C15.8594 28.5513 15.8594 29.4954 15.277 30.0777ZM15.277 19.3772L10.7837 23.8705C10.4925 24.1617 10.1109 24.3073 9.72934 24.3073C9.34779 24.3073 8.96605 24.1618 8.67497 23.8705L6.80958 22.0051C6.22722 21.4228 6.22722 20.4786 6.80958 19.8963C7.39184 19.3139 8.33607 19.3139 8.91843 19.8963L9.72934 20.7072L13.1682 17.2684C13.7505 16.686 14.6947 16.686 15.2771 17.2684C15.8594 17.8508 15.8594 18.7949 15.277 19.3772ZM30.1522 42.7025H20.6086C19.7851 42.7025 19.1174 42.0348 19.1174 41.2113C19.1174 40.3878 19.7851 39.7201 20.6086 39.7201H30.1522C30.9758 39.7201 31.6434 40.3878 31.6434 41.2113C31.6434 42.0348 30.9758 42.7025 30.1522 42.7025ZM19.1174 31.27C19.1174 30.4465 19.7851 29.7788 20.6086 29.7788H30.1096C30.9331 29.7788 31.6008 30.4465 31.6008 31.27C31.6008 32.0935 30.9331 32.7612 30.1096 32.7612H20.6086C19.7851 32.7612 19.1174 32.0935 19.1174 31.27ZM31.6009 21.3287C31.6009 22.1523 30.9332 22.8199 30.1097 22.8199H20.6087C19.7852 22.8199 19.1175 22.1523 19.1175 21.3287C19.1175 20.5052 19.7852 19.8375 20.6087 19.8375H30.1097C30.9332 19.8375 31.6009 20.5052 31.6009 21.3287Z" fill="#AECDF7"/>
<path d="M26.7883 10.3108C26.7883 10.8429 27.2212 11.2757 27.7532 11.2757H38.1612L26.7883 0V10.3108Z" fill="#AECDF7"/>
</svg>
