<svg width="15" height="16" viewBox="0 0 15 16" fill="none" xmlns="http://www.w3.org/2000/svg">
<g clip-path="url(#clip0_1_7)">
<path d="M14.4863 7.17801L10.4465 3.19129C10.186 2.93348 9.76479 2.93682 9.50697 3.19795C9.24916 3.45907 9.25182 3.87967 9.51363 4.13748L12.4007 6.98664H4.66444C4.297 6.98664 4 7.28364 4 7.65107C4 8.01851 4.297 8.31554 4.66444 8.31554H12.4007L9.51363 11.1647C9.25185 11.4225 9.24985 11.8431 9.50697 12.1042C9.63719 12.2358 9.80863 12.3022 9.98007 12.3022C10.1488 12.3022 10.3176 12.2384 10.4465 12.1109L14.4863 8.12414C14.6126 7.99923 14.6843 7.82911 14.6843 7.65104C14.6843 7.47304 14.6133 7.30361 14.4863 7.17801Z" fill="#828282"/>
</g>
<g clip-path="url(#clip1_1_7)">
<path d="M7.97344 14.6445H1.99334C1.62656 14.6445 1.32891 14.3468 1.32891 13.9801V2.01994C1.32891 1.65316 1.62659 1.3555 1.99334 1.3555H7.97344C8.34087 1.3555 8.63787 1.0585 8.63787 0.691066C8.63787 0.323628 8.34087 0.0265656 7.97344 0.0265656H1.99334C0.894344 0.0265656 0 0.920941 0 2.01994V13.9801C0 15.0791 0.894344 15.9734 1.99334 15.9734H7.97344C8.34087 15.9734 8.63787 15.6764 8.63787 15.309C8.63787 14.9415 8.34087 14.6445 7.97344 14.6445Z" fill="#828282"/>
</g>
<defs>
<clipPath id="clip0_1_7">
<rect width="11" height="10" fill="white" transform="translate(4 3)"/>
</clipPath>
<clipPath id="clip1_1_7">
<rect width="9" height="16" fill="white"/>
</clipPath>
</defs>
</svg>
