<svg width="17" height="17" viewBox="0 0 17 17" fill="none" xmlns="http://www.w3.org/2000/svg">
<path d="M2.89932 12.0807C1.6818 10.8631 0.997803 9.21182 0.997803 7.48998C0.997803 5.76815 1.6818 4.11684 2.89932 2.89932C4.11684 1.6818 5.76815 0.997803 7.48999 0.997803C9.21182 0.997803 10.8631 1.6818 12.0807 2.89932C13.1017 3.90474 13.7537 5.22524 13.9311 6.64719C14.1086 8.06914 13.8011 9.50936 13.0584 10.7349C13.0286 10.7858 13.0161 10.8451 13.0229 10.9038C13.0296 10.9624 13.0552 11.0173 13.0958 11.0602L16.4078 14.3722C16.5686 14.4968 16.7026 14.6526 16.8018 14.8302C16.901 15.0078 16.9633 15.2036 16.9849 15.4059C17.0066 15.6082 16.9872 15.8128 16.9279 16.0074C16.8686 16.202 16.7706 16.3826 16.6398 16.5384L16.5393 16.6389C16.3836 16.7697 16.203 16.8678 16.0084 16.9272C15.8138 16.9865 15.6093 17.006 15.407 16.9844C15.2047 16.9629 15.0089 16.9007 14.8312 16.8016C14.6536 16.7025 14.4977 16.5685 14.3731 16.4078L11.0673 13.102C11.0244 13.0593 10.9686 13.0318 10.9086 13.0238C10.8485 13.0158 10.7875 13.0276 10.7349 13.0575C9.50946 13.8003 8.06929 14.1079 6.64735 13.9307C5.2254 13.7534 3.90485 13.1016 2.89932 12.0807ZM10.8824 10.8824C11.5543 10.2114 12.0121 9.35611 12.1978 8.42484C12.3835 7.49356 12.2887 6.52814 11.9256 5.65071C11.5625 4.77327 10.9473 4.02326 10.1578 3.49557C9.3683 2.96787 8.44004 2.68621 7.49043 2.68621C6.54083 2.68621 5.61256 2.96787 4.82307 3.49557C4.03359 4.02326 3.41836 4.77327 3.05524 5.65071C2.69211 6.52814 2.59741 7.49356 2.7831 8.42484C2.96879 9.35611 3.42654 10.2114 4.09843 10.8824C4.99855 11.7812 6.21861 12.2859 7.49061 12.2858C8.76262 12.2856 9.98255 11.7805 10.8824 10.8815V10.8824Z" fill="#828282"/>
</svg>
